<?xml version="1.0" encoding="UTF-8" standalone="no"?>
<!DOCTYPE svg PUBLIC "-//W3C//DTD SVG 1.1//EN" "http://www.w3.org/Graphics/SVG/1.1/DTD/svg11.dtd">
<svg width="100%" height="100%" viewBox="0 0 300 70" version="1.1" xmlns="http://www.w3.org/2000/svg" xmlns:xlink="http://www.w3.org/1999/xlink" xml:space="preserve" style="fill-rule:evenodd;clip-rule:evenodd;stroke-linejoin:round;stroke-miterlimit:1.41421;">
    <g transform="matrix(3.23729,0,-0.867429,3.23729,-221.714,-48.8222)">
        <path d="M81.842,15.43L81.842,22.486L84.662,22.486L84.662,24.478L79.49,24.478L79.49,15.43L81.842,15.43Z" style="fill:white;fill-rule:nonzero;"/>
        <path d="M91.382,17.422L88.586,17.422L88.586,18.934L91.226,18.934L91.226,20.926L88.586,20.926L88.586,22.486L91.382,22.486L91.382,24.478L86.234,24.478L86.234,15.43L91.382,15.43L91.382,17.422Z" style="fill:white;fill-rule:nonzero;"/>
        <path d="M98.354,21.118L97.298,18.106L96.242,21.118L98.354,21.118ZM98.978,22.906L95.618,22.906L95.078,24.478L92.57,24.478L96.014,15.43L98.582,15.43L102.026,24.478L99.518,24.478L98.978,22.906Z" style="fill:white;fill-rule:nonzero;"/>
        <path d="M105.77,22.486L106.31,22.486C106.718,22.486 107.082,22.422 107.402,22.294C107.722,22.166 107.992,21.99 108.212,21.766C108.432,21.542 108.6,21.276 108.716,20.968C108.832,20.66 108.89,20.322 108.89,19.954C108.89,19.594 108.83,19.258 108.71,18.946C108.59,18.634 108.42,18.366 108.2,18.142C107.98,17.918 107.71,17.742 107.39,17.614C107.07,17.486 106.71,17.422 106.31,17.422L105.77,17.422L105.77,22.486ZM103.418,15.43L106.898,15.43C107.514,15.43 108.092,15.554 108.632,15.802C109.172,16.05 109.644,16.38 110.048,16.792C110.452,17.204 110.77,17.684 111.002,18.232C111.234,18.78 111.35,19.354 111.35,19.954C111.35,20.546 111.236,21.116 111.008,21.664C110.78,22.212 110.464,22.694 110.06,23.11C109.656,23.526 109.184,23.858 108.644,24.106C108.104,24.354 107.522,24.478 106.898,24.478L103.418,24.478L103.418,15.43Z" style="fill:white;fill-rule:nonzero;"/>
        <path d="M118.394,17.422L115.562,17.422L115.562,18.934L118.142,18.934L118.142,20.926L115.562,20.926L115.562,24.478L113.21,24.478L113.21,15.43L118.394,15.43L118.394,17.422Z" style="fill:white;fill-rule:nonzero;"/>
        <path d="M122.198,19.954C122.198,20.314 122.266,20.646 122.402,20.95C122.538,21.254 122.722,21.518 122.954,21.742C123.186,21.966 123.456,22.14 123.764,22.264C124.072,22.388 124.398,22.45 124.742,22.45C125.086,22.45 125.412,22.388 125.72,22.264C126.028,22.14 126.3,21.966 126.536,21.742C126.772,21.518 126.958,21.254 127.094,20.95C127.23,20.646 127.298,20.314 127.298,19.954C127.298,19.594 127.23,19.262 127.094,18.958C126.958,18.654 126.772,18.39 126.536,18.166C126.3,17.942 126.028,17.768 125.72,17.644C125.412,17.52 125.086,17.458 124.742,17.458C124.398,17.458 124.072,17.52 123.764,17.644C123.456,17.768 123.186,17.942 122.954,18.166C122.722,18.39 122.538,18.654 122.402,18.958C122.266,19.262 122.198,19.594 122.198,19.954ZM119.738,19.954C119.738,19.282 119.862,18.656 120.11,18.076C120.358,17.496 120.702,16.99 121.142,16.558C121.582,16.126 122.108,15.788 122.72,15.544C123.332,15.3 124.006,15.178 124.742,15.178C125.47,15.178 126.142,15.3 126.758,15.544C127.374,15.788 127.904,16.126 128.348,16.558C128.792,16.99 129.138,17.496 129.386,18.076C129.634,18.656 129.758,19.282 129.758,19.954C129.758,20.626 129.634,21.252 129.386,21.832C129.138,22.412 128.792,22.918 128.348,23.35C127.904,23.782 127.374,24.12 126.758,24.364C126.142,24.608 125.47,24.73 124.742,24.73C124.006,24.73 123.332,24.608 122.72,24.364C122.108,24.12 121.582,23.782 121.142,23.35C120.702,22.918 120.358,22.412 120.11,21.832C119.862,21.252 119.738,20.626 119.738,19.954Z" style="fill:white;fill-rule:nonzero;"/>
        <path d="M133.658,19.954C133.658,20.314 133.726,20.646 133.862,20.95C133.998,21.254 134.182,21.518 134.414,21.742C134.646,21.966 134.916,22.14 135.224,22.264C135.532,22.388 135.858,22.45 136.202,22.45C136.546,22.45 136.872,22.388 137.18,22.264C137.488,22.14 137.76,21.966 137.996,21.742C138.232,21.518 138.418,21.254 138.554,20.95C138.69,20.646 138.758,20.314 138.758,19.954C138.758,19.594 138.69,19.262 138.554,18.958C138.418,18.654 138.232,18.39 137.996,18.166C137.76,17.942 137.488,17.768 137.18,17.644C136.872,17.52 136.546,17.458 136.202,17.458C135.858,17.458 135.532,17.52 135.224,17.644C134.916,17.768 134.646,17.942 134.414,18.166C134.182,18.39 133.998,18.654 133.862,18.958C133.726,19.262 133.658,19.594 133.658,19.954ZM131.198,19.954C131.198,19.282 131.322,18.656 131.57,18.076C131.818,17.496 132.162,16.99 132.602,16.558C133.042,16.126 133.568,15.788 134.18,15.544C134.792,15.3 135.466,15.178 136.202,15.178C136.93,15.178 137.602,15.3 138.218,15.544C138.834,15.788 139.364,16.126 139.808,16.558C140.252,16.99 140.598,17.496 140.846,18.076C141.094,18.656 141.218,19.282 141.218,19.954C141.218,20.626 141.094,21.252 140.846,21.832C140.598,22.412 140.252,22.918 139.808,23.35C139.364,23.782 138.834,24.12 138.218,24.364C137.602,24.608 136.93,24.73 136.202,24.73C135.466,24.73 134.792,24.608 134.18,24.364C133.568,24.12 133.042,23.782 132.602,23.35C132.162,22.918 131.818,22.412 131.57,21.832C131.322,21.252 131.198,20.626 131.198,19.954Z" style="fill:white;fill-rule:nonzero;"/>
        <path d="M146.402,17.422L146.402,24.478L144.05,24.478L144.05,17.422L142.118,17.422L142.118,15.43L148.334,15.43L148.334,17.422L146.402,17.422Z" style="fill:white;fill-rule:nonzero;"/>
    </g>
    <g transform="matrix(2.8229,0,-0.756394,2.8229,-197.28,-2.34608)">
        <path d="M81.128,20.312L81.128,24.478L79.739,24.478L79.739,20.312L78.598,20.312L78.598,19.136L82.268,19.136L82.268,20.312L81.128,20.312Z" style="fill:white;fill-rule:nonzero;"/>
        <path d="M90.933,21.524L91.195,21.524C91.469,21.524 91.679,21.467 91.826,21.354C91.972,21.24 92.046,21.077 92.046,20.865C92.046,20.652 91.972,20.489 91.826,20.376C91.679,20.262 91.469,20.206 91.195,20.206L90.933,20.206L90.933,21.524ZM93.987,24.478L92.258,24.478L90.933,22.423L90.933,24.478L89.545,24.478L89.545,19.136L91.705,19.136C92.003,19.136 92.263,19.18 92.485,19.267C92.707,19.354 92.89,19.474 93.034,19.625C93.178,19.776 93.287,19.951 93.36,20.149C93.433,20.347 93.47,20.56 93.47,20.787C93.47,21.193 93.372,21.522 93.176,21.775C92.98,22.028 92.69,22.199 92.308,22.289L93.987,24.478Z" style="fill:white;fill-rule:nonzero;"/>
        <path d="M104.132,22.494L103.509,20.716L102.885,22.494L104.132,22.494ZM104.501,23.55L102.517,23.55L102.198,24.478L100.717,24.478L102.751,19.136L104.267,19.136L106.3,24.478L104.82,24.478L104.501,23.55Z" style="fill:white;fill-rule:nonzero;"/>
        <path d="M113.569,24.478L113.569,19.136L114.958,19.136L117.523,22.402L117.523,19.136L118.904,19.136L118.904,24.478L117.523,24.478L114.958,21.212L114.958,24.478L113.569,24.478Z" style="fill:white;fill-rule:nonzero;"/>
        <path d="M129.617,20.503C129.466,20.381 129.315,20.29 129.163,20.231C129.012,20.172 128.866,20.142 128.724,20.142C128.545,20.142 128.398,20.185 128.285,20.27C128.171,20.355 128.115,20.466 128.115,20.603C128.115,20.697 128.143,20.775 128.2,20.836C128.256,20.898 128.331,20.951 128.423,20.996C128.515,21.041 128.619,21.08 128.735,21.113C128.85,21.146 128.965,21.181 129.078,21.219C129.532,21.37 129.864,21.572 130.074,21.825C130.284,22.077 130.389,22.407 130.389,22.813C130.389,23.087 130.343,23.335 130.251,23.557C130.159,23.779 130.024,23.969 129.847,24.127C129.67,24.286 129.453,24.408 129.195,24.496C128.938,24.583 128.646,24.627 128.32,24.627C127.645,24.627 127.019,24.426 126.443,24.025L127.038,22.905C127.246,23.089 127.451,23.226 127.654,23.316C127.857,23.406 128.058,23.451 128.256,23.451C128.483,23.451 128.652,23.399 128.763,23.295C128.874,23.191 128.93,23.073 128.93,22.941C128.93,22.86 128.915,22.791 128.887,22.732C128.859,22.673 128.811,22.618 128.745,22.569C128.679,22.519 128.593,22.473 128.487,22.43C128.38,22.388 128.252,22.341 128.101,22.289C127.921,22.232 127.745,22.169 127.573,22.101C127.4,22.033 127.247,21.942 127.112,21.828C126.978,21.715 126.869,21.572 126.786,21.4C126.704,21.227 126.662,21.009 126.662,20.744C126.662,20.48 126.706,20.24 126.793,20.025C126.881,19.81 127.004,19.626 127.162,19.472C127.32,19.319 127.514,19.2 127.743,19.115C127.972,19.03 128.228,18.987 128.512,18.987C128.776,18.987 129.052,19.024 129.34,19.097C129.629,19.17 129.905,19.278 130.169,19.419L129.617,20.503Z" style="fill:white;fill-rule:nonzero;"/>
        <path d="M139.309,21.587L139.769,21.587C140.28,21.587 140.535,21.365 140.535,20.921C140.535,20.477 140.28,20.255 139.769,20.255L139.309,20.255L139.309,21.587ZM139.309,24.478L137.92,24.478L137.92,19.136L140.131,19.136C140.731,19.136 141.19,19.292 141.509,19.604C141.828,19.915 141.987,20.355 141.987,20.921C141.987,21.488 141.828,21.927 141.509,22.239C141.19,22.551 140.731,22.707 140.131,22.707L139.309,22.707L139.309,24.478Z" style="fill:white;fill-rule:nonzero;"/>
        <path d="M150.595,21.807C150.595,22.02 150.635,22.216 150.716,22.395C150.796,22.575 150.905,22.73 151.042,22.863C151.179,22.995 151.338,23.098 151.52,23.171C151.702,23.244 151.894,23.281 152.097,23.281C152.3,23.281 152.493,23.244 152.675,23.171C152.856,23.098 153.017,22.995 153.156,22.863C153.296,22.73 153.406,22.575 153.486,22.395C153.566,22.216 153.606,22.02 153.606,21.807C153.606,21.594 153.566,21.398 153.486,21.219C153.406,21.039 153.296,20.884 153.156,20.751C153.017,20.619 152.856,20.516 152.675,20.443C152.493,20.37 152.3,20.333 152.097,20.333C151.894,20.333 151.702,20.37 151.52,20.443C151.338,20.516 151.179,20.619 151.042,20.751C150.905,20.884 150.796,21.039 150.716,21.219C150.635,21.398 150.595,21.594 150.595,21.807ZM149.143,21.807C149.143,21.41 149.216,21.041 149.362,20.698C149.509,20.356 149.712,20.057 149.972,19.802C150.232,19.547 150.542,19.347 150.903,19.203C151.265,19.059 151.663,18.987 152.097,18.987C152.527,18.987 152.924,19.059 153.287,19.203C153.651,19.347 153.964,19.547 154.226,19.802C154.488,20.057 154.693,20.356 154.839,20.698C154.986,21.041 155.059,21.41 155.059,21.807C155.059,22.204 154.986,22.573 154.839,22.916C154.693,23.258 154.488,23.557 154.226,23.812C153.964,24.067 153.651,24.267 153.287,24.411C152.924,24.555 152.527,24.627 152.097,24.627C151.663,24.627 151.265,24.555 150.903,24.411C150.542,24.267 150.232,24.067 149.972,23.812C149.712,23.557 149.509,23.258 149.362,22.916C149.216,22.573 149.143,22.204 149.143,21.807Z" style="fill:white;fill-rule:nonzero;"/>
        <path d="M163.986,21.524L164.248,21.524C164.522,21.524 164.732,21.467 164.878,21.354C165.025,21.24 165.098,21.077 165.098,20.865C165.098,20.652 165.025,20.489 164.878,20.376C164.732,20.262 164.522,20.206 164.248,20.206L163.986,20.206L163.986,21.524ZM167.039,24.478L165.311,24.478L163.986,22.423L163.986,24.478L162.597,24.478L162.597,19.136L164.758,19.136C165.056,19.136 165.315,19.18 165.537,19.267C165.759,19.354 165.942,19.474 166.086,19.625C166.23,19.776 166.339,19.951 166.412,20.149C166.486,20.347 166.522,20.56 166.522,20.787C166.522,21.193 166.424,21.522 166.228,21.775C166.032,22.028 165.743,22.199 165.36,22.289L167.039,24.478Z" style="fill:white;fill-rule:nonzero;"/>
        <path d="M176.313,20.312L176.313,24.478L174.925,24.478L174.925,20.312L173.784,20.312L173.784,19.136L177.454,19.136L177.454,20.312L176.313,20.312Z" style="fill:white;fill-rule:nonzero;"/>
    </g>
    <g transform="matrix(1.15778,0,-0.310226,1.15778,-28.7936,-18.4735)">
        <path d="M263.215,16.769C265.69,16.769 267.814,18.006 269.163,19.798C269.274,19.909 269.385,20.131 269.495,20.242L278.159,33.264L283.183,34.04C287.228,34.04 290.48,37.291 290.48,41.337L290.48,47.995C292.493,48.216 293.174,48.027 293.174,50.151L293.174,52.811C293.174,55.065 292.382,54.967 290.018,54.967L48.874,54.967L48.874,48.426L243.793,48.353C249.74,48.353 250.562,47.532 250.562,41.584L250.562,19.17C250.562,17.84 251.633,16.769 252.963,16.769L263.215,16.769Z" style="fill:white;"/>
    </g>
</svg>
